<svg xmlns="http://www.w3.org/2000/svg" version="1.1" xmlns:xlink="http://www.w3.org/1999/xlink" xmlns:svgjs="http://svgjs.dev/svgjs" width="2000" height="1500" viewBox="0 0 2000 1500"><rect width="2000" height="1500" fill="#ffffff"></rect><g transform="matrix(0.75,0,0,0.75,249.090909090909,473.4891413399995)"><svg viewBox="0 0 396 146" data-background-color="#ea9937" preserveAspectRatio="xMidYMid meet" height="737" width="2000" xmlns="http://www.w3.org/2000/svg" xmlns:xlink="http://www.w3.org/1999/xlink"><defs></defs><g id="tight-bounds" transform="matrix(1,0,0,1,0.24000000000003752,0.03588487446418753)"><svg viewBox="0 0 395.5199999999999 145.92823025107162" height="145.92823025107162" width="395.5199999999999"><g><svg viewBox="0 0 395.5199999999999 145.92823025107162" height="145.92823025107162" width="395.5199999999999"><g><svg viewBox="0 0 395.5199999999999 145.92823025107162" height="145.92823025107162" width="395.5199999999999"><g><svg viewBox="0 0 395.5199999999999 145.92823025107162" height="145.92823025107162" width="395.5199999999999"><g><svg viewBox="0 0 395.5199999999999 145.92823025107162" height="145.92823025107162" width="395.5199999999999"><g><svg viewBox="0 0 395.5199999999999 145.92823025107162" height="145.92823025107162" width="395.5199999999999"><g><svg viewBox="0 0 395.5199999999999 145.92823025107162" height="145.92823025107162" width="395.5199999999999"><g transform="matrix(1,0,0,1,0,0)"><svg width="395.5199999999999" viewBox="-2.85 -38.35 163.28 60.25" height="145.92823025107162" data-palette-color="#ffffff"><path d="M35.55-4.2L35.55-4.2Q35.55-2.25 32.9-1.6L32.9-1.6Q32.75-1.6 32.75-1.8 32.75-2 33.1-2.25L33.1-2.25Q34.1-3 34.1-3.9L34.1-3.9Q34.1-5.65 31.3-6.45L31.3-6.45Q27.6-1.9 21.03 1.1 14.45 4.1 9.35 4.1 4.25 4.1 4.25 2L4.25 2Q4.25 0.25 7.73-2.18 11.2-4.6 16.68-6.43 22.15-8.25 27-8.25L27-8.25Q29.4-8.25 31.1-7.9L31.1-7.9Q32.65-10.65 32.65-13.65L32.65-13.65Q32.65-15.4 31.1-16.57 29.55-17.75 26.95-17.75 24.35-17.75 22-16.7L22-16.7Q21.5-16.35 21.2-16.35L21.2-16.35Q20.65-16.35 20.65-16.63 20.65-16.9 21.4-17.3L21.4-17.3Q22.5-17.65 25.63-20 28.75-22.35 31.73-25.73 34.7-29.1 34.7-31.4L34.7-31.4Q34.7-35.15 26.6-35.15L26.6-35.15Q20.9-35.15 14.48-32.83 8.05-30.5 3.65-26.78-0.75-23.05-0.75-19.5L-0.75-19.5Q-0.75-17.6 1.6-17.6L1.6-17.6Q4.95-17.6 8.2-19.28 11.45-20.95 16.7-25.35L16.7-25.35Q17.35-26.1 17.6-26.1L17.6-26.1Q18.15-26.1 18.15-25.75L18.15-25.75Q18.15-25.65 17.8-25.05L17.8-25.05Q16.5-23.75 14.15-21.9 11.8-20.05 9.8-18.8 7.8-17.55 5.28-16.55 2.75-15.55 0.7-15.55L0.7-15.55Q-2.85-15.55-2.85-18.7L-2.85-18.7Q-2.85-22.8 2.5-27.13 7.85-31.45 15.08-34.13 22.3-36.8 28-36.8L28-36.8Q37.05-36.8 37.05-32.35L37.05-32.35Q37.05-29.1 32.73-24.68 28.4-20.25 24.95-18.6L24.95-18.6Q26.5-18.9 27.85-18.9L27.85-18.9Q31-18.9 32.7-17.7 34.4-16.5 34.4-14.45L34.4-14.45Q34.4-10.95 32.15-7.6L32.15-7.6Q35.55-6.6 35.55-4.2ZM26.45-7.05L26.45-7.05Q22.65-7.05 17.85-5.45 13.05-3.85 9.83-1.8 6.6 0.25 6.6 1.53 6.6 2.8 9.68 2.8 12.75 2.8 16.43 1.83 20.1 0.85 24.13-1.43 28.15-3.7 30.3-6.7L30.3-6.7Q28.4-7.05 26.45-7.05ZM26.75-32.15L27-31.95Q27-31.8 21.18-21.75 15.35-11.7 12.6-7.1L12.6-7.1Q12.3-6.45 11.5-6.1 10.7-5.75 10.28-5.75 9.85-5.75 9.85-5.98 9.85-6.2 13.55-12.43 17.25-18.65 20.93-24.8 24.6-30.95 24.5-31L24.5-31Q24.8-31.5 25.5-31.75L25.5-31.75 26.75-32.15ZM46-5.95L46-5.95Q45.7-5.95 45.7-6.3L45.7-6.3 45.85-6.65Q46.75-7.5 46.75-8.1L46.75-8.1Q46.75-8.85 45.95-8.85L45.95-8.85Q44.2-8.85 41.22-6.43 38.25-4 38.25-2.1L38.25-2.1Q38.25-1.3 39.3-1.3 40.35-1.3 41.72-2.18 43.1-3.05 44.07-3.93 45.05-4.8 45.15-4.8L45.15-4.8Q45.65-4.75 45.65-4.3L45.65-4.3Q45.65-4.1 44.87-3 44.1-1.9 44.1-1.25L44.1-1.25Q44.1-0.75 44.92-0.75 45.75-0.75 47.85-1.73 49.95-2.7 51.55-3.7L51.55-3.7 53.15-4.7Q53.2-4.6 53.2-4.3 53.2-4 52.75-3.8L52.75-3.8Q46 0.8 43.35 0.8L43.35 0.8Q42.05 0.8 42.05-0.5L42.05-0.5Q42.05-1.05 42.25-1.65L42.25-1.65Q41.9-1.25 40.17-0.43 38.45 0.4 37.1 0.4 35.75 0.4 35.75-0.85L35.75-0.85Q35.75-3.8 39.85-6.88 43.95-9.95 46.75-9.95L46.75-9.95Q48.4-9.95 48.4-8.55L48.4-8.55Q48.4-7.75 47.4-6.85 46.4-5.95 46-5.95ZM51.7-3.8L51.7-3.8Q52.65-4.35 54.2-5.55L54.2-5.55Q58-8.55 58.25-8.55L58.25-8.55Q59-8.55 59-7.9 59-7.25 58.22-5.9 57.45-4.55 56.47-3.1 55.5-1.65 55.35-1.35L55.35-1.35Q55.4-1.3 55.57-1.3 55.75-1.3 57.55-2.63 59.35-3.95 61.3-5.43 63.25-6.9 63.6-7.13 63.95-7.35 64.25-7.35L64.25-7.35Q64.85-7.3 64.85-6.65L64.85-6.65Q64.85-6.4 63.15-4.13 61.45-1.85 61.45-1.2L61.45-1.2Q61.45-0.75 62.52-0.75 63.6-0.75 65.7-1.73 67.8-2.7 69.4-3.7L69.4-3.7 71-4.7Q71.05-4.6 71.05-4.3 71.05-4 70.6-3.8L70.6-3.8Q63.85 0.8 61.2 0.8L61.2 0.8Q59.65 0.8 59.65-0.4L59.65-0.4Q59.65-1.55 60.32-2.6 61-3.65 61.5-4.38 62-5.1 62-5.15L62-5.15Q59.7-3.5 56.55-1.2 53.4 1.1 53 1.1L53 1.1Q52.7 1.1 52.7 0.4 52.7-0.3 54.67-3.25 56.65-6.2 56.65-6.4 56.65-6.6 56.55-6.6L56.55-6.6 56.05-6.35 53.55-4.35Q53.3-4.15 52.6-3.7 51.9-3.25 51.72-3.25 51.55-3.25 51.55-3.48 51.55-3.7 51.7-3.8ZM69.69-3.2L69.69-3.2Q69.39-3.1 69.14-3.1 68.89-3.1 68.84-3.35L68.84-3.35Q72.39-5.55 73.59-6.65 74.79-7.75 75.24-8.2 75.69-8.65 76.04-9L76.04-9Q76.64-9.65 76.94-9.65L76.94-9.65Q77.64-9.55 77.64-9.1L77.64-9.1Q77.64-8.9 77.09-7.98 76.54-7.05 74.12-2.55 71.69 1.95 70.44 4.15L70.44 4.15Q71.44 4 72.34 4L72.34 4Q74.74 4 74.74 5.25L74.74 5.25Q74.74 5.95 73.82 7.03 72.89 8.1 72.39 8.1 71.89 8.1 71.89 7.75L71.89 7.75Q71.89 7.55 72.44 7.13 72.99 6.7 72.99 6.1L72.99 6.1Q72.99 5.3 71.97 5.3 70.94 5.3 69.69 5.55L69.69 5.55Q60.59 21.9 56.44 21.9L56.44 21.9Q54.74 21.9 54.74 20.15L54.74 20.15Q54.74 17 59.04 11.73 63.34 6.45 68.49 4.65L68.49 4.65Q71.59-1.05 74.29-6.55L74.29-6.55Q73.84-6 69.69-3.2ZM57.24 20.45L57.24 20.45Q59.79 20.45 67.69 6.15L67.69 6.15Q63.09 7.9 59.77 12.38 56.44 16.85 56.44 19.4L56.44 19.4Q56.44 20.45 57.24 20.45ZM79.59-15.15L79.59-15.15Q80.34-15.15 80.34-14.4 80.34-13.65 79.64-12.88 78.94-12.1 78.09-12.1L78.09-12.1Q77.39-12.1 77.39-13.08 77.39-14.05 78.19-14.6 78.99-15.15 79.59-15.15ZM87.39-5.95L87.39-5.95Q87.09-5.95 87.09-6.3L87.09-6.3 87.24-6.65Q88.14-7.5 88.14-8.1L88.14-8.1Q88.14-8.85 87.34-8.85L87.34-8.85Q85.59-8.85 82.62-6.43 79.64-4 79.64-2.1L79.64-2.1Q79.64-1.3 80.69-1.3 81.74-1.3 83.12-2.18 84.49-3.05 85.47-3.93 86.44-4.8 86.54-4.8L86.54-4.8Q87.04-4.75 87.04-4.3L87.04-4.3Q87.04-4.1 86.27-3 85.49-1.9 85.49-1.25L85.49-1.25Q85.49-0.75 86.32-0.75 87.14-0.75 89.24-1.73 91.34-2.7 92.94-3.7L92.94-3.7 94.54-4.7Q94.59-4.6 94.59-4.3 94.59-4 94.14-3.8L94.14-3.8Q87.39 0.8 84.74 0.8L84.74 0.8Q83.44 0.8 83.44-0.5L83.44-0.5Q83.44-1.05 83.64-1.65L83.64-1.65Q83.29-1.25 81.57-0.43 79.84 0.4 78.49 0.4 77.14 0.4 77.14-0.85L77.14-0.85Q77.14-3.8 81.24-6.88 85.34-9.95 88.14-9.95L88.14-9.95Q89.79-9.95 89.79-8.55L89.79-8.55Q89.79-7.75 88.79-6.85 87.79-5.95 87.39-5.95ZM122.74-35.2L122.74-35.2Q122.99-35.2 123.09-34.9L123.09-34.9Q123.09-34.5 122.49-34.4L122.49-34.4Q119.69-33.45 116.51-30.95 113.34-28.45 110.51-24.93 107.69-21.4 105.81-16.6 103.94-11.8 103.94-6.9L103.94-6.9Q103.94-0.25 108.64-0.25L108.64-0.25Q111.39-0.25 115.06-2.68 118.74-5.1 121.96-8.78 125.19-12.45 127.44-17.4 129.69-22.35 129.69-26.93 129.69-31.5 126.54-31.5L126.54-31.5Q123.99-31.5 120.54-28.78 117.09-26.05 114.51-21.88 111.94-17.7 111.94-14.03 111.94-10.35 114.49-10.35L114.49-10.35Q116.09-10.35 118.11-11.88 120.14-13.4 121.74-15.95L121.74-15.95Q121.94-16.35 122.21-16.35 122.49-16.35 122.49-16.05L122.49-16.05Q122.49-14.65 119.01-11.65 115.54-8.65 113.04-8.65L113.04-8.65Q110.09-8.65 110.09-13.4L110.09-13.4Q110.09-17.1 113.19-21.83 116.29-26.55 120.49-29.8 124.69-33.05 127.74-33.05L127.74-33.05Q131.74-33.05 131.74-27.1L131.74-27.1Q131.74-22.6 129.14-17.43 126.54-12.25 122.81-8.22 119.09-4.2 114.84-1.5 110.59 1.2 107.39 1.2L107.39 1.2Q101.84 1.2 101.84-6.7L101.84-6.7Q101.84-11.5 103.74-16.18 105.64-20.85 108.36-24.15 111.09-27.45 114.11-30.05 117.14-32.65 119.46-33.93 121.79-35.2 122.74-35.2ZM146.83-23.5L146.83-23.5Q144.88-23.5 144.88-25.2L144.88-25.2Q144.88-27.8 147.78-30.1 150.68-32.4 154.68-33.85L154.68-33.85Q154.33-35.3 152.88-36.08 151.43-36.85 149.31-36.85 147.18-36.85 144.91-36.05 142.63-35.25 140.61-33.77 138.58-32.3 137.31-29.88 136.03-27.45 136.03-24.55L136.03-24.55Q136.03-23.55 137.53-18.7 139.03-13.85 139.03-10.65L139.03-10.65Q139.03-9.85 138.83-8.35L138.83-8.35Q140.73-8.55 141.58-8.55L141.58-8.55Q146.43-8.55 146.43-6L146.43-6Q146.43-5.1 145.88-4.5 145.33-3.9 144.03-3.1L144.03-3.1Q143.63-3.35 143.63-3.55 143.63-3.75 143.83-3.9L143.83-3.9Q145.33-4.75 145.33-5.6L145.33-5.6Q145.33-7.3 141.38-7.3L141.38-7.3Q139.93-7.3 138.58-7.1L138.58-7.1Q137.73-3.9 135.41-1.13 133.08 1.65 130.23 3.38 127.38 5.1 124.51 6.05 121.63 7 119.43 7L119.43 7Q116.03 7 116.03 5L116.03 5Q116.03 2.2 119.53-0.65 123.03-3.5 127.86-5.43 132.68-7.35 137.33-8.15L137.33-8.15Q137.53-9.55 137.53-10.4L137.53-10.4Q137.53-12.55 135.96-17.13 134.38-21.7 134.38-25 134.38-28.3 136.98-31.58 139.58-34.85 143.16-36.6 146.73-38.35 149.93-38.35L149.93-38.35Q154.98-38.35 155.48-34.1L155.48-34.1Q158.28-35 159.28-35 160.28-35 160.36-34.93 160.43-34.85 160.43-34.35 160.43-33.85 159.98-33.7L159.98-33.7Q157.73-33.6 155.53-33.05L155.53-33.05Q155.43-29 152.48-26.25 149.53-23.5 146.83-23.5ZM117.98 3.75L117.98 3.75Q117.98 5.2 120.88 5.2L120.88 5.2Q124.93 5.2 129.93 2.3L129.93 2.3Q132.38 0.9 134.36-1.53 136.33-3.95 137.08-6.9L137.08-6.9Q132.83-6.2 128.56-4.65 124.28-3.1 121.13-0.83 117.98 1.45 117.98 3.75ZM146.48-25.5L146.48-25.5Q146.48-24.55 147.48-24.55L147.48-24.55Q149.38-24.55 152.06-27.13 154.73-29.7 154.78-32.8L154.78-32.8Q151.28-31.7 148.88-29.75 146.48-27.8 146.48-25.5Z" opacity="1" transform="matrix(1,0,0,1,0,0)" fill="#000000" class="undefined-text-0" data-fill-palette-color="primary" id="text-0"></path></svg></g></svg></g></svg></g></svg></g><g></g></svg></g></svg></g></svg></g></svg><rect width="395.5199999999999" height="145.92823025107162" fill="none" stroke="none" visibility="hidden"></rect></g></svg></g></svg>